<?xml version="1.0" encoding="UTF-8" standalone="no"?>
<!-- Created with Inkscape (http://www.inkscape.org/) -->
<svg xmlns:inkscape="http://www.inkscape.org/namespaces/inkscape"
    xmlns:rdf="http://www.w3.org/1999/02/22-rdf-syntax-ns#"
    xmlns="http://www.w3.org/2000/svg"
    xmlns:cc="http://creativecommons.org/ns#"
    xmlns:dc="http://purl.org/dc/elements/1.1/"
    xmlns:sodipodi="http://sodipodi.sourceforge.net/DTD/sodipodi-0.dtd"
    xmlns:svg="http://www.w3.org/2000/svg"
    xmlns:ns1="http://sozi.baierouge.fr"
    xmlns:xlink="http://www.w3.org/1999/xlink" id="svg2" sodipodi:docname="Jarno_Single_engine_Cessna.svg" viewBox="0 0 1001.3 401.39" sodipodi:version="0.32" version="1.0" inkscape:output_extension="org.inkscape.output.svg.inkscape" y="0" x="0" inkscape:version="0.46">
    <sodipodi:namedview id="base" bordercolor="#666666" inkscape:pageshadow="2" guidetolerance="10.0" pagecolor="#ffffff" gridtolerance="10.0" objecttolerance="10.0" borderopacity="1.0" inkscape:window-height="480" showgrid="false" inkscape:pageopacity="0.0" inkscape:window-width="640" />
    <g id="layer1" transform="translate(-25.329 -163.93)">
        <g id="g2412">
            <path id="path2154" style="fill-rule:evenodd;stroke:#000000;stroke-width:3.7671;fill:#bcccdc" d="m220.23 279.24l85.39 119.14 15.88-7.94-93.33-123.12-7.94 11.92z" />
            <path id="path2142" style="fill-rule:evenodd;stroke:#000000;stroke-width:3.7671;fill:#ebf3ff" d="m663.06 314.98l-39.72-15.89s15.89-7.94 33.76-7.94 33.76 1.99 33.76 1.99l29.78 7.94-57.58 13.9z" />
            <path id="path1381" style="fill-rule:evenodd;stroke:#000000;stroke-width:4.238;fill:#ebf3ff" d="m236.11 418.24s25.82-13.9 49.65-23.83 45.67-17.87 45.67-17.87l25.82-47.66s-111.21-35.74-176.74-59.57-150.92-59.58-150.92-59.58c0.002 0-5.955-1.98 1.988-7.94s95.322-7.94 95.322-7.94l369.35 119.14s25.82 3.98 41.7 9.93c15.89 5.96 29.79 11.92 29.79 11.92s41.7-3.97 67.52-11.92c25.81-7.94 95.31-31.77 107.23-39.71 11.91-7.95 73.47-113.19 73.47-113.19l45.67-3.97-37.73 133.04v21.85s-9.92-1.99 0 0c9.93 1.98 123.12 37.73 123.12 37.73l-47.66 11.91-148.93-27.8 39.72 7.94-55.61 21.85s291.96 59.57 289.96 63.54-13.9 11.92-39.75 19.86c-25.81 7.94-57.58 9.93-57.58 9.93l-266.1-59.57-139 63.54 27.8 51.63s15.88-11.91 31.77-13.9c15.89-1.98 29.79 1.99 29.79 1.99s-1.99 29.78-25.82 43.68-39.71 11.92-47.66 1.99c-7.94-9.93 1.99-25.82 1.99-25.82l-37.73-53.61-71.49 23.83s-23.83 7.94-55.6 11.91-33.76 1.99-33.76 1.99l-25.96-0.09s19.86 1.99 21.85 5.96c1.98 3.97 5.95 19.86-1.99 23.83s-19.86 13.9-33.76 15.89c-13.9 1.98-31.77 0-33.76-5.96-1.98-5.96 1.99-17.87 9.93-23.83 7.95-5.96 19.86-9.93 19.86-9.93l25.96-5.87s-45.67-13.9-59.58-25.82c-13.9-11.91-19.85-15.88-25.81-35.74s-1.99-33.76-1.99-33.76z" />
            <path id="path2176" style="fill-rule:evenodd;fill:#000000;fill-opacity:.36216" d="m462.1 306.44c1.22-3.67 53.79 8.56 68.46 13.45 14.66 4.89 36.67 17.11 36.67 17.11v3.67l-105.13-34.23z" />
            <path id="path2144" style="fill-rule:evenodd;fill-opacity:.60541;stroke:#000000;stroke-width:2.3544px;fill:#000035" d="m339.37 374.55s33.76 7.95 47.66 13.9c13.9 5.96 31.78 15.89 31.78 15.89l31.77 1.99 7.94-45.68s-7.94 3.97-11.91-3.97c-3.98-7.94 9.93-15.88 9.93-15.88l-85.39-25.82-31.78 59.57z" />
            <path id="path2146" style="stroke:#000000;stroke-width:2.3544px;fill:none" d="m458.52 360.65l202.55 45.68" />
            <path id="path2148" style="fill-rule:evenodd;stroke:#000000;stroke-width:2.3544px;fill:#5d6085" d="m464.48 402.35l5.96-37.73 57.58 11.92v15.89l-63.54 9.92z" />
            <path id="path2150" style="fill-rule:evenodd;stroke:#000000;stroke-width:2.3544px;fill:#5d6085" d="m537.95 380.51l3.97 9.93 17.88-5.96-21.85-3.97z" />
            <path id="path2152" style="fill-rule:evenodd;fill-opacity:.52432;stroke:#000000;stroke-width:2.3544px;fill:#000000" d="m240.09 424.2s5.95-1.99 25.81 5.96c19.86 7.94 27.8 15.88 27.8 15.88s9.93 7.94 0 7.94-9.93 3.98-27.8-3.97c-17.87-7.94-25.81-9.93-25.81-17.87v-7.94z" />
            <path id="path2170" style="fill-rule:evenodd;fill:#000000;fill-opacity:.15135" d="m311.75 505.69s12.64 2.3 15.09-5.04c2.44-7.33 21.58-9.63 21.58-9.63s19.56 2.45 85.57-12.22 222.77-83.86 218.45-71.76l-131.85 62.4c-21.61 4.32-82.58 24.3-123.27 38.7-35.52 2.29-50.78 3.73-67.89 3.87-17.11-2.44-17.68-6.32-17.68-6.32z" />
            <path id="path2156" style="fill-rule:evenodd;stroke:#000000;stroke-width:2.8253;fill:#f4fbfe" d="m441.32 493.47l187.39-92.76 15.53 2.3-176.03 83.12-26.89 7.34z" />
            <path id="path2162" style="fill-rule:evenodd;fill:#000000;fill-opacity:.037838" d="m632.01 322.69l176.03-14.66s-14.67-19.56-41.56-19.56c-26.9 0-33.02-2.09-59.91 12.58-26.9 14.67-74.56 21.64-74.56 21.64z" />
            <path id="path2166" style="fill-rule:evenodd;fill:#000000;fill-opacity:.10270" d="m748.48 286.54l71.07-112.62 35.09-3.31c-4.32 7.78-15.26 7.65-31.93 22.15-24.45 31.78-74.23 93.78-74.23 93.78z" />
            <path id="path2168" style="fill-rule:evenodd;fill:#000000;fill-opacity:.10270" d="m421.76 410.35l-112.46 44s9.78 7.34 9.78 24.45 9.78 19.56 9.78 19.56-7.33-26.9-2.44-34.23 95.34-53.78 95.34-53.78z" />
            <path id="path2172" style="fill-rule:evenodd;fill:#000000;fill-opacity:.17838" d="m757.02 338.29l60.51-15.56 65.69 19.88s-42.36-12.97-63.1-12.1c-20.74 0.86-63.1 7.78-63.1 7.78z" />
            <path id="path2174" style="fill-rule:evenodd;fill:#b8b8b8" d="m922.11 413.13s-320.67-59.64-400.19-87.3c-79.53-27.66-364.61-120.24-364.61-120.24s262.86 93.64 377.52 130.22c109.78 34.13 387.28 77.32 387.28 77.32z" />
            <path id="path2178" style="fill-rule:evenodd;fill:#000000;fill-opacity:.25946" d="m927.83 460.46s0-6.11 9.78-12.22 14.67-11 36.67-12.22c22.01-1.23 34.22 0 34.22 0s-15.88 0-39.11 4.89c-23.22 4.88-30.56 8.55-34.22 13.44-3.67 4.89-7.34 6.11-7.34 6.11z" />
            <path id="path2180" style="fill-rule:evenodd;fill:#000000;fill-opacity:.52973" d="m450.52 361.29l-87.26-31.93s-3.19 0 0-6.38c3.19-6.39 7.45-8.52 7.45-8.52l85.13 26.61s-4.25 0-7.45 5.32c-3.19 5.32-4.25 6.38-2.12 10.64 2.12 4.26 4.25 4.26 4.25 4.26z" />
            <path id="path2182" style="fill-rule:evenodd;fill:#000000;fill-opacity:.2" d="m280.51 555.36c15.89-4.99 35.88-13.4 45.22-19.32 6.86-6.54 2.86-17.16 8.18-16.09 5.32 1.06 5.18 14.33 2.64 18.02-3.17 5.86-25.7 18.58-37.33 18.63-12.25 0.06-15.59 1.56-18.71-1.24z" />
            <path id="path2184" style="fill-rule:evenodd;fill:#000000;fill-opacity:.15135" d="m542.04 530.49s1.06 8.51 5.32 8.51 11.71 3.19 27.67-2.13 30.86-19.15 30.86-19.15-2.13 10.64-4.26 15.96-14.9 18.09-21.28 21.28c-6.39 3.2-18.09 11.71-29.8 6.39-11.7-5.32-13.83-4.26-13.83-11.71s5.32-19.15 5.32-19.15z" />
            <path id="path2186" style="fill-rule:evenodd;fill:#000000;fill-opacity:.091892" d="m542.04 530.49l8.51-6.39s11.71-8.51 11.71-5.32-4.26 8.52-8.51 10.64c-4.26 2.13-11.71 1.07-11.71 1.07z" />
            <path id="path2188" style="fill-rule:evenodd;fill:#000000;fill-opacity:.17297" d="m781.48 351.71l-53.21 21.28-17.03-3.19s51.08-18.09 59.59-19.15c8.52-1.07 10.65 1.06 10.65 1.06z" />
            <path id="path2190" style="stroke:#000000;stroke-width:2.3544px;fill:none" d="m320.58 512.8h21.06" />
            <path id="path2192" style="stroke:#000000;stroke-width:2.3544px;fill:none" d="m540.3 533.87z" />
            <path id="path2194" style="stroke-opacity:.42162;stroke:#000000;stroke-width:2.3544px;fill:none" d="m537.29 530.86l18.06-12.04" />
            <path id="path2196" d="m194.32 372.08c0.57 0.62-0.56 1.09-1.03 0.96-1.3-0.34-1.45-2.02-0.89-3.02 1-1.78 3.45-1.91 5-0.81 2.29 1.6 2.39 4.9 0.75 6.99-2.18 2.8-6.36 2.87-8.98 0.68-3.31-2.76-3.35-7.82-0.61-10.98 3.32-3.82 9.28-3.83 12.96-0.53 4.34 3.89 4.32 10.74 0.47 14.95-4.46 4.86-12.21 4.81-16.94 0.39-5.38-5.01-5.3-13.67-0.32-18.92 5.58-5.9 15.13-5.79 20.91-0.25 6.42 6.14 6.27 16.59 0.18 22.9-6.7 6.94-18.06 6.76-24.89 0.11-7.46-7.27-7.25-19.53-0.04-26.88 7.83-7.99 21-7.74 28.87 0.03 8.51 8.39 8.23 22.46-0.1 30.86-8.96 9.03-23.93 8.72-32.85-0.18-9.55-9.51-9.21-25.39 0.25-34.83 10.07-10.07 26.85-9.7 36.82 0.32 10.59 10.63 10.18 28.32-0.39 38.81-11.2 11.11-29.79 10.67-40.8-0.46-11.64-11.76-11.16-31.26 0.53-42.79 12.32-12.16 32.72-11.65 44.78 0.6 12.68 12.88 12.14 34.19-0.67 46.77-13.45 13.2-35.65 12.63-48.76-0.75-13.72-14-13.12-37.11 0.82-50.74 14.56-14.25 38.58-13.61 52.73 0.89 14.77 15.12 14.1 40.04-0.96 54.72-15.69 15.29-41.51 14.59-56.71-1.03-15.81-16.25-15.08-42.98 1.1-58.7 16.81-16.33 44.45-15.57 60.69 1.17 16.85 17.37 16.06 45.91-1.24 62.68-17.94 17.37-47.38 16.55-64.67-1.32-17.9-18.49-17.04-48.84 1.39-66.65 19.05-18.42 50.31-17.53 68.64 1.46 18.94 19.61 18.02 51.77-1.53 70.63" style="stroke:#000000;stroke-width:1px;fill:none" transform="matrix(1.7966 .80067 -.17741 2.1956 -22.161 -531.8)" />
            <path id="path2198" style="fill-rule:evenodd;stroke:#000000;stroke-width:3.6729;fill:#ebf3ff" d="m261.21 424.53s11.08 8.14 11.08 19.66c0 11.53-11.08 14.24-11.08 14.24s-16.89-4.07-22.17-6.78c-3.69-4.07-6.33-10.85 0-16.27 6.34-5.43 22.17-10.85 22.17-10.85z" />
            <path id="path2204" style="fill-rule:evenodd;fill:#00004c;fill-opacity:.61622" d="m608.87 396.65l11.54 1.92s-113.46 48.08-130.76 51.93c-17.31 3.84-92.31 23.07-92.31 23.07s-5.77 3.85-3.85-3.84c1.93-7.7 50-13.47 101.92-26.93 21.16-5.77 101.92-40.38 101.92-40.38l11.54-5.77z" />
            <path id="path2206" style="fill-rule:evenodd;fill:#00004c;fill-opacity:.61622" d="m681.95 363.96l9.61 1.92 42.31-15.38-1.92-3.85-50 17.31z" />
            <path id="path2208" style="stroke:#000000;stroke-width:3.0608;fill:none" d="m758.87 377.42l-180.77-36.54" />
            <path id="path2278" style="fill-rule:evenodd;fill:#000000;fill-opacity:.086486" d="m614.64 331.27l203.84-13.46-19.23-9.62s-19.23-9.61-82.69 1.93c-63.46 11.53-101.92 21.15-101.92 21.15z" />
        </g
    >
    </g
  >
    <metadata
    >
        <rdf:RDF
      >
            <cc:Work
        >
                <dc:format
          >image/svg+xml</dc:format
        >
                <dc:type rdf:resource="http://purl.org/dc/dcmitype/StillImage" />
                <cc:license rdf:resource="http://creativecommons.org/licenses/publicdomain/" />
                <dc:publisher
          >
                    <cc:Agent rdf:about="http://openclipart.org/">
                        <dc:title
              >Openclipart</dc:title
            >
                    </cc:Agent
          >
                </dc:publisher
        >
                <dc:title
          >Single engine Cessna</dc:title
        >
                <dc:date
          >2008-05-08T16:59:24</dc:date
        >
                <dc:description
          >Single engine Cessna plane.</dc:description
        >
                <dc:source
          >https://openclipart.org/detail/16692/single-engine-cessna-by-jarno</dc:source
        >
                <dc:creator
          >
                    <cc:Agent
            >
                        <dc:title
              >Jarno</dc:title
            >
                    </cc:Agent
          >
                </dc:creator
        >
                <dc:subject
          >
                    <rdf:Bag
            >
                        <rdf:li
              >cessna</rdf:li
            >
                        <rdf:li
              >plane</rdf:li
            >
                    </rdf:Bag
          >
                </dc:subject
        >
            </cc:Work
      >
            <cc:License rdf:about="http://creativecommons.org/licenses/publicdomain/">
                <cc:permits rdf:resource="http://creativecommons.org/ns#Reproduction" />
                <cc:permits rdf:resource="http://creativecommons.org/ns#Distribution" />
                <cc:permits rdf:resource="http://creativecommons.org/ns#DerivativeWorks" />
            </cc:License
      >
        </rdf:RDF
    >
    </metadata
  >
</svg>
