<?xml version="1.0" standalone="no"?>
<!DOCTYPE svg PUBLIC "-//W3C//DTD SVG 20010904//EN"
 "http://www.w3.org/TR/2001/REC-SVG-20010904/DTD/svg10.dtd">
<svg version="1.0" xmlns="http://www.w3.org/2000/svg"
 width="2002.000000pt" height="2002.000000pt" viewBox="0 0 2002.000000 2002.000000"
 preserveAspectRatio="xMidYMid meet">
<metadata>
Created by potrace 1.14, written by Peter Selinger 2001-2017
</metadata>
<g transform="translate(0.000000,2002.000000) scale(0.100000,-0.100000)"
fill="#000000" stroke="none">
<path d="M16659 14016 c-3 -3 -67 -9 -229 -21 -70 -5 -181 -15 -225 -20 -45
-5 -156 -15 -230 -20 -179 -13 -186 -14 -205 -37 -11 -13 -19 -26 -20 -30 0
-4 -13 -28 -29 -55 -16 -26 -54 -91 -85 -143 -31 -52 -61 -102 -66 -110 -5 -8
-25 -42 -45 -75 -19 -33 -46 -78 -60 -100 -13 -22 -34 -56 -45 -75 -11 -19
-31 -53 -45 -75 -13 -22 -32 -53 -41 -70 -9 -16 -23 -35 -30 -43 -8 -7 -14
-17 -14 -22 0 -6 -215 -360 -280 -460 -22 -34 -116 -183 -125 -199 -5 -9 -20
-31 -32 -48 -13 -17 -23 -34 -23 -37 0 -4 -5 -12 -10 -19 -6 -7 -59 -86 -119
-177 -61 -91 -113 -169 -118 -175 -5 -5 -29 -39 -53 -75 -60 -88 -158 -209
-194 -242 -29 -26 -108 -68 -228 -122 -31 -14 -60 -26 -63 -26 -3 0 -30 -10
-58 -23 -74 -34 -159 -68 -178 -72 -8 -2 -44 -15 -80 -30 -35 -15 -73 -27 -84
-27 -11 0 -88 18 -171 41 -145 40 -171 45 -296 56 -212 20 -296 24 -503 24
-200 -1 -230 -4 -385 -40 -47 -11 -92 -22 -100 -24 -39 -9 -213 -76 -266 -103
l-59 -30 30 -11 c17 -6 40 -16 53 -21 34 -15 57 -24 187 -75 66 -26 134 -53
150 -61 17 -7 77 -31 135 -54 58 -22 113 -45 122 -50 10 -6 25 -10 33 -10 25
0 17 -17 -12 -28 -38 -14 -408 -132 -430 -137 -10 -2 -70 -17 -135 -34 -64
-17 -131 -33 -150 -36 -18 -3 -51 -10 -73 -15 -22 -5 -56 -11 -75 -14 -19 -3
-46 -8 -60 -11 -14 -3 -38 -7 -55 -10 -42 -6 -95 -15 -125 -21 -34 -7 -135
-21 -195 -29 -16 -2 -30 -4 -30 -5 0 -1 -13 -3 -30 -5 -44 -5 -113 -13 -170
-20 -27 -3 -68 -8 -90 -11 -71 -10 -109 -6 -170 21 -33 15 -105 45 -160 67
-55 22 -111 45 -125 51 -14 5 -29 11 -35 13 -5 1 -62 23 -125 47 -154 59 -331
113 -473 142 -10 2 -28 7 -39 11 -11 3 -30 7 -41 9 -12 1 -56 10 -97 18 -72
15 -102 21 -172 32 -18 3 -44 8 -58 11 -29 6 -365 111 -395 123 -18 8 -102 33
-115 35 -3 1 -18 7 -35 13 -37 15 -469 153 -478 153 -3 0 -18 5 -34 12 -15 6
-32 12 -38 14 -15 3 -192 60 -325 104 -63 21 -176 57 -250 80 -74 23 -144 45
-155 50 -22 9 -261 88 -286 94 -31 8 -184 56 -199 63 -8 4 -19 8 -25 8 -5 1
-23 7 -39 14 -16 6 -36 13 -45 14 -18 3 -174 54 -206 67 -11 4 -45 15 -75 24
-30 9 -131 41 -224 71 -92 30 -174 55 -182 55 -8 0 -14 4 -14 8 0 5 -6 9 -12
9 -21 0 -282 85 -295 95 -7 6 -13 8 -13 5 0 -3 -26 3 -57 14 -32 11 -66 22
-75 24 -15 3 -189 59 -228 73 -8 3 -24 7 -34 9 -11 2 -25 8 -32 14 -7 6 -18 8
-23 5 -5 -4 -12 -2 -15 3 -3 4 -20 12 -38 16 -18 4 -35 9 -38 10 -3 1 -12 4
-20 8 -22 8 -272 88 -290 92 -8 2 -76 25 -150 50 -74 25 -144 48 -154 50 -10
2 -35 10 -55 17 -20 7 -38 13 -41 13 -3 1 -72 23 -155 50 -82 27 -152 50 -155
50 -3 1 -86 28 -185 60 -99 33 -182 59 -185 60 -3 0 -99 31 -215 69 -115 37
-216 70 -225 72 -8 2 -35 11 -60 20 -25 9 -52 17 -60 19 -8 2 -49 15 -90 30
-41 14 -86 28 -99 31 -14 3 -29 8 -35 12 -6 3 -16 7 -22 8 -10 2 -304 97 -732
236 -68 22 -128 41 -135 42 -7 2 -19 6 -27 9 -8 3 -67 22 -130 43 -63 20 -137
44 -165 53 -39 14 -139 21 -152 11 -8 -5 -71 -2 -80 3 -6 4 -13 3 -17 0 -4 -4
-48 -8 -99 -9 -92 -1 -368 -12 -482 -19 -33 -2 -114 -6 -180 -10 -162 -8 -226
-13 -315 -21 -41 -3 -93 -8 -115 -10 -22 -1 -69 -5 -105 -8 -36 -3 -76 -7 -90
-10 -14 -2 -52 -7 -85 -11 -32 -4 -62 -8 -65 -10 -3 -2 -23 -6 -45 -9 -97 -16
-139 -34 -199 -86 -41 -36 -58 -75 -51 -117 5 -36 40 -77 56 -67 5 3 9 1 9 -4
0 -5 19 -17 42 -27 47 -20 45 -19 73 -29 11 -4 29 -12 40 -17 11 -4 61 -25
110 -45 50 -20 109 -45 132 -55 23 -10 45 -19 48 -19 4 0 22 -7 41 -15 79 -35
109 -47 309 -128 205 -83 249 -101 290 -118 21 -9 76 -31 85 -34 3 -1 16 -6
30 -12 14 -6 68 -27 120 -48 52 -20 100 -40 105 -43 6 -4 15 -7 20 -7 6 -1 21
-6 35 -12 14 -6 50 -21 80 -33 30 -11 64 -25 75 -30 11 -5 58 -23 105 -41 47
-18 89 -36 95 -41 5 -4 18 -8 30 -8 12 0 25 -4 30 -9 6 -4 24 -13 40 -19 17
-6 77 -29 135 -52 58 -23 110 -43 115 -44 6 -2 21 -8 35 -14 62 -26 86 -35 95
-38 17 -4 179 -64 200 -74 11 -5 58 -23 105 -40 47 -17 93 -35 102 -41 10 -5
24 -9 31 -9 8 0 28 -7 46 -16 17 -9 37 -17 44 -18 11 -1 49 -15 181 -67 27
-10 52 -19 56 -19 4 0 24 -7 44 -15 20 -8 39 -16 43 -16 9 -1 77 -26 108 -39
11 -5 40 -16 65 -24 25 -8 104 -36 175 -61 72 -25 169 -59 216 -75 138 -46
164 -59 181 -88 13 -22 196 -280 226 -317 4 -5 30 -41 57 -80 27 -38 53 -71
57 -73 4 -2 8 -8 8 -13 0 -8 45 -71 86 -122 8 -9 14 -20 14 -23 0 -3 16 -25
35 -48 19 -24 35 -46 35 -50 0 -4 9 -16 20 -28 28 -30 26 -52 -3 -44 -12 4
-38 9 -57 12 -63 10 -355 5 -355 -6 0 -1 -16 -3 -35 -6 -19 -2 -60 -12 -90
-21 -30 -9 -57 -17 -60 -17 -62 -11 -268 -125 -356 -198 -32 -26 -139 -133
-169 -169 -36 -43 -111 -153 -136 -199 -13 -25 -26 -47 -29 -50 -5 -5 -42 -83
-42 -87 1 -2 -12 -31 -27 -65 -16 -35 -41 -103 -55 -153 -15 -49 -31 -103 -36
-120 -5 -16 -12 -48 -15 -70 -4 -22 -10 -58 -15 -80 -5 -22 -12 -62 -15 -90
-3 -27 -8 -66 -11 -85 -9 -57 -11 -399 -3 -485 14 -152 19 -200 25 -230 4 -16
7 -36 7 -42 0 -7 3 -13 6 -13 3 0 6 -12 7 -27 1 -40 14 -110 25 -142 6 -14 10
-27 10 -28 -1 -2 -1 -4 0 -5 0 -2 3 -15 5 -30 3 -15 13 -55 24 -89 11 -34 20
-65 20 -70 0 -4 5 -20 12 -36 6 -15 12 -30 13 -33 1 -3 7 -25 14 -49 7 -24 16
-51 21 -60 5 -9 19 -43 31 -76 41 -111 171 -365 245 -483 19 -29 34 -57 34
-62 0 -5 6 -13 13 -17 7 -4 29 -33 49 -63 20 -30 46 -65 57 -77 12 -12 21 -26
21 -30 0 -4 14 -24 31 -43 17 -19 47 -53 66 -75 54 -63 202 -211 246 -247 21
-18 52 -45 68 -60 17 -16 33 -28 38 -28 5 0 14 -6 20 -13 12 -15 148 -108 226
-154 85 -50 205 -104 330 -147 l120 -42 1 -64 c2 -80 25 -135 67 -160 17 -10
37 -23 42 -27 10 -8 84 -33 115 -39 87 -15 167 -25 182 -21 10 3 20 2 22 -2 5
-8 158 -6 241 3 77 8 185 33 251 57 58 22 214 97 224 108 3 3 21 15 40 25 19
11 53 31 75 45 54 34 94 57 133 77 71 36 121 100 138 174 9 43 6 194 -5 223
-15 39 -14 84 3 115 8 15 20 41 28 57 13 30 13 30 103 31 107 2 254 13 385 29
30 4 71 8 90 10 48 5 130 15 160 20 14 2 48 7 75 11 28 3 59 8 70 10 11 3 36
7 55 10 19 2 42 7 51 10 10 2 30 6 45 9 48 6 96 15 164 31 36 9 74 17 85 19
11 2 38 9 60 14 22 6 61 14 86 20 25 5 88 22 140 37 52 14 100 27 107 27 6 0
12 4 12 9 0 5 5 6 10 3 6 -3 16 -3 23 2 6 4 17 8 22 9 11 2 161 52 185 61 17
7 29 11 50 16 8 2 22 7 30 10 42 18 100 35 100 30 0 -3 6 -1 13 4 10 8 48 22
77 27 3 1 11 5 17 9 7 5 21 10 30 12 17 3 250 79 283 92 8 3 20 7 25 9 45 12
564 187 578 195 22 12 67 -12 67 -36 0 -8 5 -15 10 -15 6 0 10 -6 10 -14 0 -8
4 -16 8 -18 7 -3 79 -101 107 -147 6 -9 13 -18 16 -21 3 -3 34 -48 70 -100 35
-52 67 -97 70 -100 6 -5 88 -121 104 -148 6 -10 12 -19 16 -22 3 -3 25 -34 50
-70 24 -36 48 -69 52 -75 4 -5 35 -48 67 -95 33 -47 69 -96 80 -110 26 -33 25
-54 -5 -115 -13 -27 -25 -55 -25 -62 0 -6 -5 -24 -11 -40 -10 -25 -16 -59 -23
-148 -15 -174 148 -349 359 -386 87 -15 217 -6 315 22 41 11 82 22 90 24 8 2
30 11 48 20 18 9 38 18 45 19 23 4 196 95 264 139 65 42 181 148 232 211 97
120 207 357 237 511 4 22 9 47 11 55 2 8 5 34 7 56 2 23 6 46 9 51 7 12 -8 36
-25 39 -7 1 -40 7 -73 15 -33 7 -64 12 -69 10 -5 -1 -16 1 -25 5 -46 20 -342
25 -456 8 -110 -16 -117 -18 -132 -27 -7 -5 -13 -6 -13 -3 0 3 -16 -2 -35 -10
-19 -8 -38 -15 -42 -15 -5 -1 -19 -6 -33 -12 -14 -5 -29 -11 -35 -12 -24 -6
-196 -96 -260 -136 -22 -14 -46 -29 -53 -33 -7 -4 -15 0 -19 11 -4 10 -21 43
-38 73 -18 30 -52 93 -77 140 -25 47 -67 123 -92 170 -25 47 -60 114 -78 150
-18 36 -39 71 -46 78 -6 7 -12 20 -12 28 0 8 -4 14 -9 14 -5 0 -11 10 -15 23
-3 12 -21 48 -40 80 -19 31 -32 57 -29 57 3 0 0 6 -6 14 -6 7 -22 34 -36 60
l-24 46 32 14 c18 8 68 30 112 51 103 47 171 79 243 111 31 15 99 46 150 70
51 24 95 44 97 44 2 0 37 16 76 35 40 19 78 35 86 35 7 0 13 5 13 10 0 6 6 10
13 10 8 0 46 16 86 35 39 19 73 35 76 35 6 0 173 78 217 101 21 11 41 20 45
21 5 0 46 19 93 40 47 22 105 49 130 60 25 11 74 34 110 50 36 17 90 41 120
55 30 13 67 31 81 38 14 8 29 12 33 8 3 -3 6 -1 6 5 0 7 9 12 20 12 11 0 20 5
20 10 0 6 5 10 11 10 6 0 45 16 86 35 41 19 76 35 78 35 2 0 55 25 120 55 64
30 118 55 120 55 2 0 46 20 97 44 133 62 172 80 270 124 l88 39 187 -44 c104
-23 199 -45 213 -47 14 -2 25 -5 25 -6 0 -2 9 -4 60 -14 38 -7 253 -55 280
-62 11 -3 29 -7 40 -9 11 -3 61 -14 110 -25 121 -28 126 -29 155 -35 14 -3 36
-8 50 -11 14 -3 35 -7 47 -10 12 -2 69 -15 125 -29 112 -26 147 -33 193 -41
17 -3 37 -7 45 -10 8 -3 26 -8 40 -10 14 -2 36 -7 50 -11 53 -13 97 -23 125
-28 11 -1 40 -8 65 -15 25 -7 56 -14 70 -16 45 -8 65 -12 65 -14 0 -1 11 -4
25 -6 14 -2 52 -11 85 -19 74 -17 156 -35 181 -40 11 -2 19 -4 19 -5 0 -2 15
-5 60 -13 42 -8 71 -14 140 -31 33 -9 71 -17 85 -20 14 -3 57 -12 95 -21 108
-24 109 -25 133 -29 13 -3 31 -7 40 -10 9 -3 31 -8 47 -11 66 -13 82 -16 120
-27 22 -5 49 -11 60 -13 11 -1 29 -5 40 -8 11 -3 31 -8 45 -11 14 -3 68 -15
120 -27 52 -11 102 -22 110 -23 8 -2 33 -8 55 -13 69 -18 229 -54 255 -57 14
-2 32 -6 40 -9 8 -3 42 -11 75 -18 73 -15 66 -14 146 -33 37 -8 78 -17 90 -20
13 -2 56 -12 94 -21 39 -9 79 -18 90 -20 44 -9 127 -27 270 -60 83 -19 162
-36 178 -39 15 -3 35 -7 45 -10 9 -3 28 -8 42 -10 50 -11 208 -46 310 -70 58
-13 108 -22 113 -19 4 2 7 -1 7 -7 0 -6 4 -9 9 -6 5 4 21 2 35 -4 15 -5 40
-11 57 -12 17 -1 32 -5 35 -9 2 -3 16 -5 31 -3 25 4 75 8 203 19 25 2 45 4 45
5 0 3 33 8 104 14 41 4 77 9 80 10 4 2 31 7 61 11 63 8 83 11 128 19 17 3 44
8 60 11 15 3 38 7 52 10 14 3 41 8 60 12 19 4 37 8 40 8 18 5 74 18 130 32 36
8 72 18 80 21 8 3 20 6 25 6 6 1 30 8 55 16 25 7 47 14 50 15 11 2 177 58 200
68 14 5 33 12 43 14 11 2 28 10 40 18 12 8 31 15 43 15 12 0 27 7 34 15 7 8
19 15 26 15 15 0 153 66 214 102 143 84 209 153 195 199 -8 24 -71 53 -160 74
-5 2 -55 15 -110 30 -55 14 -111 29 -125 32 -49 10 -55 11 -57 13 -3 3 -3 3
-58 15 -52 11 -46 9 -147 34 -48 11 -98 23 -110 26 -59 13 -115 26 -133 30
-36 9 -70 16 -95 21 -14 2 -36 7 -50 11 -14 3 -29 7 -35 8 -5 2 -46 11 -90 21
-93 21 -79 18 -135 29 -25 5 -47 9 -50 10 -28 8 -59 16 -80 19 -14 3 -36 8
-50 11 -34 8 -110 24 -140 30 -14 3 -36 8 -50 11 -51 12 -60 14 -82 19 -13 2
-36 8 -53 12 -30 6 -36 8 -85 17 -14 3 -56 12 -95 21 -114 26 -123 28 -185 39
-14 3 -34 7 -45 10 -11 2 -87 19 -170 36 -82 17 -157 34 -165 37 -8 3 -24 7
-35 7 -11 1 -30 5 -42 9 -12 5 -37 10 -55 12 -18 2 -53 9 -78 15 -25 7 -56 13
-70 15 -14 2 -25 4 -25 5 0 1 -7 3 -15 5 -8 1 -51 10 -95 19 -44 10 -91 19
-105 22 -14 2 -54 11 -90 19 -92 20 -255 54 -320 66 -30 5 -62 13 -70 16 -8 3
-26 7 -40 9 -14 2 -54 10 -90 18 -122 27 -206 45 -230 50 -48 9 -259 52 -300
61 -50 11 -76 16 -100 20 -14 2 -43 9 -65 14 -22 6 -60 13 -85 17 -25 3 -48 8
-52 11 -10 6 -46 13 -84 17 -17 2 -36 6 -41 9 -6 4 -25 9 -44 11 -19 3 -79 14
-134 26 -55 12 -120 26 -145 30 -25 5 -90 18 -145 30 -55 12 -111 24 -125 26
-14 2 -43 8 -65 13 -22 6 -53 12 -70 16 -50 9 -78 15 -127 26 -25 6 -57 12
-70 14 -12 2 -34 6 -48 10 -14 4 -33 7 -42 7 -27 -1 -22 6 22 28 22 11 40 18
40 16 0 -3 24 5 53 18 73 32 91 39 102 41 6 1 26 8 45 17 33 14 69 29 80 33 3
1 14 5 25 10 25 10 365 143 495 194 76 30 102 36 130 30 19 -4 51 -10 70 -13
57 -9 341 -62 395 -73 17 -4 37 -7 45 -9 24 -3 90 -15 114 -20 11 -3 44 -9 71
-14 28 -5 61 -12 75 -15 14 -3 43 -8 64 -10 21 -3 42 -7 45 -9 4 -3 25 -7 47
-10 22 -4 51 -8 64 -11 14 -3 50 -9 80 -15 30 -6 66 -12 80 -15 14 -3 41 -8
60 -11 19 -3 42 -7 51 -10 9 -2 32 -7 50 -9 19 -3 44 -7 57 -10 57 -13 69 -15
97 -20 17 -2 44 -7 60 -10 17 -4 39 -8 50 -10 11 -1 31 -5 45 -9 14 -4 41 -8
60 -11 19 -2 60 -9 90 -15 30 -6 66 -13 80 -16 44 -8 124 -23 155 -30 17 -3
42 -7 58 -7 15 -1 27 -5 27 -8 0 -7 77 -2 90 6 4 3 36 11 71 19 35 8 102 24
149 36 47 12 92 23 100 25 8 1 35 8 60 15 25 7 52 14 60 16 8 2 53 13 100 24
47 12 92 23 100 25 14 3 93 23 185 46 22 6 47 12 55 14 133 30 191 52 145 56
-17 2 -24 3 -45 12 -19 7 -212 69 -225 71 -15 3 -248 76 -265 83 -8 4 -17 7
-20 8 -24 7 -97 29 -105 31 -5 1 -62 19 -125 39 -63 20 -131 41 -150 47 -19 6
-48 16 -65 22 -16 6 -32 11 -35 12 -3 0 -25 6 -50 14 -25 7 -49 15 -55 16 -5
1 -82 26 -170 54 -88 28 -167 53 -175 55 -16 4 -505 153 -530 161 -8 3 -16 5
-17 5 -3 0 -18 5 -143 44 -47 14 -92 28 -100 30 -8 2 -72 21 -142 41 l-128 37
-1 46 c-3 260 1 357 17 409 10 32 18 62 19 67 2 6 17 62 35 125 18 63 33 121
33 128 0 6 3 12 7 12 3 0 6 8 7 18 1 9 16 67 33 127 18 61 34 117 35 125 2 8
4 15 5 15 1 0 3 7 5 15 2 8 11 40 20 70 9 30 18 62 20 70 7 27 57 204 76 270
10 36 32 112 48 170 16 58 39 139 51 180 12 41 23 82 25 90 3 8 16 56 30 105
14 50 28 97 30 105 2 8 8 26 13 40 5 14 10 30 11 35 1 6 6 28 12 50 6 22 12
45 13 50 2 6 9 30 16 55 7 25 14 50 16 55 4 19 135 480 172 608 l20 67 -58 0
c-31 0 -59 -2 -61 -4z m-11919 -2716 c80 -28 152 -53 160 -55 17 -4 288 -93
310 -102 8 -3 20 -7 25 -9 19 -5 320 -104 335 -111 8 -3 20 -7 26 -8 5 -2 82
-27 170 -56 87 -29 164 -54 169 -55 6 -2 51 -17 100 -34 50 -17 98 -32 108
-35 22 -5 85 -25 112 -36 11 -4 43 -14 70 -23 74 -23 240 -78 243 -81 3 -3
-20 -58 -28 -65 -3 -3 -14 -23 -25 -45 -11 -22 -22 -42 -25 -45 -3 -3 -25 -43
-50 -90 -45 -87 -64 -122 -161 -301 -31 -57 -78 -144 -104 -194 -85 -157 -81
-154 -170 -186 l-80 -30 -15 23 c-19 29 -165 213 -188 237 -9 10 -47 49 -83
87 -103 108 -252 244 -268 244 -5 0 -11 3 -13 8 -1 4 -22 22 -46 41 -35 27
-182 209 -252 312 -8 12 -20 27 -25 33 -6 6 -74 94 -150 196 -77 102 -142 187
-145 190 -3 3 -17 21 -30 40 -14 19 -30 42 -37 50 -6 8 -37 48 -67 88 -66 85
-74 84 134 12z m-255 -604 c17 -3 46 -9 65 -12 39 -6 47 -14 105 -94 22 -30
43 -56 47 -58 5 -2 8 -7 8 -12 0 -13 53 -90 62 -90 4 0 8 -4 8 -9 0 -6 -30 1
-67 13 -38 13 -71 23 -76 24 -4 0 -31 5 -60 11 -28 6 -68 13 -87 16 -44 6
-238 7 -265 1 -12 -2 -46 -7 -78 -11 -31 -4 -57 -12 -57 -17 0 -5 -4 -7 -9 -4
-23 14 -196 -62 -306 -135 -68 -45 -202 -168 -238 -219 -58 -82 -116 -173
-143 -227 -31 -60 -92 -210 -100 -245 -6 -27 -11 -47 -29 -108 -9 -30 -18 -71
-20 -90 -2 -19 -9 -60 -15 -90 -21 -106 -30 -362 -20 -525 3 -39 26 -226 35
-275 7 -42 53 -233 64 -268 5 -18 11 -36 12 -40 25 -98 80 -239 145 -381 24
-51 44 -97 44 -101 0 -5 3 -10 8 -12 4 -1 22 -32 41 -67 35 -68 151 -250 174
-273 7 -7 24 -29 37 -48 13 -19 29 -40 35 -47 5 -6 35 -40 65 -74 115 -132
322 -314 418 -369 15 -8 45 -28 67 -43 22 -15 45 -27 51 -27 7 0 14 -4 16 -8
11 -29 322 -146 415 -157 26 -3 48 -7 51 -10 2 -2 -11 -37 -31 -77 -19 -40
-38 -83 -42 -96 -4 -15 -12 -21 -22 -18 -8 3 -27 9 -41 12 -15 3 -52 15 -82
26 -30 11 -59 21 -65 23 -97 24 -371 185 -529 312 -106 83 -386 369 -386 392
0 3 -18 26 -40 51 -22 25 -40 49 -40 53 0 5 -6 14 -12 21 -7 8 -19 22 -25 32
-76 115 -101 156 -120 189 -32 61 -65 119 -71 130 -4 6 -7 12 -7 15 -1 3 -23
49 -49 103 -45 92 -149 364 -160 418 -3 13 -12 46 -20 73 -17 53 -62 258 -72
328 -3 23 -7 52 -9 63 -9 63 -16 131 -21 220 -3 55 -7 109 -8 120 -1 11 2 28
7 39 6 11 5 16 -1 13 -5 -4 -8 13 -6 41 6 98 15 218 19 247 2 17 7 57 10 90 4
33 11 62 16 63 5 2 7 8 4 12 -9 14 49 246 78 310 6 14 11 27 12 30 10 44 101
232 134 279 12 16 21 33 21 38 0 5 8 18 18 29 9 10 34 42 54 69 35 47 152 166
208 210 73 58 189 124 280 158 75 28 193 59 232 62 15 1 30 4 33 6 7 7 292 3
330 -5z m23 -261 c57 -6 193 -39 247 -59 11 -5 31 -12 45 -17 14 -5 35 -22 45
-36 11 -15 35 -46 53 -70 17 -24 32 -48 32 -53 0 -6 4 -10 8 -10 4 0 15 -12
24 -27 9 -16 28 -41 42 -58 14 -16 26 -34 26 -39 0 -5 8 -15 18 -23 26 -22 4
-13 -104 41 -55 28 -110 54 -124 59 -14 5 -34 13 -45 17 -132 51 -221 65 -395
64 -142 0 -243 -22 -358 -76 -149 -71 -249 -158 -380 -333 -14 -19 -72 -115
-72 -120 0 -2 -11 -28 -25 -57 -13 -29 -25 -60 -27 -68 -2 -8 -6 -17 -9 -20
-6 -5 -54 -174 -63 -220 -3 -14 -7 -34 -9 -45 -3 -11 -8 -47 -12 -80 -4 -33
-9 -73 -11 -90 -5 -43 -6 -334 0 -370 2 -16 7 -52 10 -80 4 -27 8 -63 10 -80
2 -16 7 -41 10 -55 3 -14 8 -37 11 -52 11 -60 17 -85 36 -153 11 -38 22 -74
23 -80 2 -5 8 -23 14 -38 7 -16 12 -32 12 -36 0 -32 164 -391 183 -399 4 -2 7
-10 7 -18 0 -8 5 -14 10 -14 6 0 10 -5 10 -12 0 -10 114 -185 129 -198 3 -3
22 -25 41 -50 69 -90 166 -190 260 -270 36 -30 67 -58 70 -61 10 -10 179 -119
186 -119 4 0 15 -6 23 -13 27 -23 202 -94 288 -116 116 -31 279 -42 371 -27
17 3 44 8 60 11 51 8 145 45 217 84 73 39 95 55 145 102 33 31 57 42 65 29 4
-6 16 -10 29 -10 12 0 26 -3 30 -7 7 -7 70 -31 100 -38 10 -2 21 -6 23 -9 6
-5 -39 -17 -287 -71 -182 -41 -434 -169 -540 -275 -23 -23 -46 -38 -52 -34 -6
4 -23 8 -37 10 -14 1 -26 3 -26 4 0 1 -12 3 -26 5 -43 6 -214 58 -217 67 -2 4
-10 8 -18 8 -41 0 -340 173 -385 222 -9 10 -19 18 -23 18 -12 0 -149 124 -230
209 -28 29 -61 64 -73 77 -13 13 -23 27 -23 33 0 5 -3 11 -8 13 -4 2 -25 26
-47 53 -21 28 -45 55 -53 62 -7 6 -13 14 -12 17 0 4 -22 40 -50 81 -27 41 -50
77 -50 81 0 4 -6 15 -14 23 -16 19 -146 271 -146 284 0 5 -12 32 -26 61 -14
28 -25 51 -24 51 2 0 -7 27 -17 53 -3 9 -7 19 -8 22 -1 3 -4 12 -8 20 -8 19
-58 189 -62 209 -2 9 -4 17 -4 19 -1 1 -1 4 -2 7 0 2 -7 31 -14 63 -26 112
-29 125 -40 212 -4 30 -9 71 -11 90 -3 19 -7 76 -9 125 -12 256 -3 367 49 620
10 46 58 202 71 227 7 15 16 41 20 58 4 16 11 30 16 30 5 0 9 9 9 19 0 11 4
23 10 26 5 3 19 25 30 48 27 55 37 71 90 142 75 101 110 138 215 223 32 26
103 70 122 76 11 4 27 13 33 21 7 8 18 15 25 15 7 0 30 8 51 17 22 9 44 18 49
19 6 1 37 10 70 19 33 9 82 18 110 21 27 3 51 6 52 8 4 4 188 -3 241 -9z m912
-189 c50 -43 306 -302 332 -338 15 -20 34 -42 41 -50 7 -7 24 -29 37 -48 13
-19 33 -44 42 -55 21 -22 10 -39 -34 -49 -22 -5 -32 1 -67 43 -23 27 -41 52
-41 56 0 3 -6 12 -12 19 -7 7 -23 26 -35 42 -12 16 -62 83 -112 149 -50 66
-94 125 -98 130 -4 6 -26 33 -47 60 -62 79 -63 80 -46 70 8 -5 26 -18 40 -29z
m-955 -65 c0 -1 23 -4 52 -6 29 -3 63 -7 77 -10 15 -3 38 -7 54 -10 41 -9 206
-66 216 -76 6 -5 18 -9 28 -9 10 0 18 -4 18 -9 0 -5 10 -13 23 -17 41 -12 158
-85 190 -119 38 -39 47 -51 73 -90 10 -17 21 -32 24 -35 3 -3 28 -36 55 -75
27 -38 53 -71 57 -73 4 -2 8 -9 8 -15 1 -7 14 -28 30 -47 36 -42 37 -53 6 -68
-21 -10 -29 -5 -82 47 -33 31 -95 85 -139 119 -44 34 -85 67 -92 72 -7 6 -17
10 -23 10 -5 0 -10 4 -10 9 0 5 -15 14 -32 22 -18 7 -35 16 -38 20 -10 13
-196 94 -240 104 -3 1 -24 7 -47 14 -120 34 -402 34 -424 -1 -3 -5 -9 -9 -13
-8 -33 8 -171 -58 -246 -118 -99 -79 -187 -189 -239 -297 -13 -28 -29 -61 -36
-75 -20 -39 -64 -186 -70 -231 -3 -23 -7 -44 -9 -48 -2 -3 -7 -26 -11 -50 -20
-138 -20 -326 1 -486 4 -33 8 -69 10 -80 1 -11 3 -21 3 -22 1 -2 1 -5 2 -8 1
-5 29 -125 33 -140 2 -5 6 -17 9 -25 6 -17 19 -74 18 -78 -1 -1 5 -15 14 -32
8 -16 15 -38 15 -50 0 -11 5 -20 12 -20 6 0 9 -3 5 -6 -3 -3 6 -27 19 -54 13
-26 24 -52 24 -58 0 -5 18 -42 40 -82 22 -40 40 -74 40 -76 0 -5 112 -177 120
-184 3 -3 24 -30 46 -61 47 -63 197 -215 252 -256 20 -15 39 -30 42 -34 36
-40 296 -177 370 -194 8 -2 35 -8 59 -14 25 -5 48 -8 52 -5 4 2 10 0 14 -6 4
-6 53 -9 133 -6 97 2 144 9 197 26 39 12 72 26 75 29 3 4 19 12 35 18 26 9 47
4 148 -36 l118 -45 -30 -26 c-39 -33 -63 -52 -87 -67 -18 -12 -104 -56 -114
-58 -3 -1 -13 -5 -22 -8 -65 -25 -56 -22 -88 -30 -14 -4 -39 -9 -55 -10 -17
-2 -35 -6 -40 -9 -26 -14 -292 5 -327 23 -9 5 -21 8 -25 7 -11 -3 -115 33
-130 45 -7 5 -13 6 -13 3 0 -10 -155 71 -242 128 -43 27 -78 53 -78 58 0 4 -5
8 -11 8 -6 0 -28 14 -48 31 -59 50 -251 242 -251 251 0 4 -8 16 -17 27 -27 27
-73 83 -73 86 0 2 -24 39 -52 82 -71 105 -69 101 -141 248 -79 159 -131 288
-153 380 -9 36 -10 40 -17 60 -3 11 -9 34 -12 50 -7 32 -12 57 -15 65 -1 3 -2
9 -1 13 1 5 -3 25 -8 45 -5 20 -12 57 -15 82 -3 25 -9 70 -13 100 -17 138 -3
487 23 572 3 10 8 30 11 45 8 42 11 58 13 58 1 0 3 8 5 17 5 26 35 119 50 153
43 101 59 135 67 135 4 0 8 6 8 13 0 17 139 216 151 217 3 0 27 20 52 44 101
95 272 183 393 201 45 7 99 17 101 18 2 3 138 0 138 -2z m168 -273 c9 -1 17
-6 17 -10 0 -4 3 -7 8 -6 29 6 268 -85 292 -112 3 -3 16 -11 30 -18 38 -18 75
-43 105 -69 7 -7 18 -13 24 -13 5 0 14 -6 18 -13 4 -7 19 -20 33 -29 41 -28
140 -124 140 -136 0 -6 -11 -14 -25 -18 -14 -3 -25 -10 -25 -16 0 -5 -3 -7 -8
-4 -4 2 -25 -4 -47 -14 -44 -21 -62 -24 -67 -12 -4 11 -137 108 -168 123 -14
7 -32 18 -40 25 -22 17 -159 75 -205 86 -212 52 -324 44 -497 -34 -27 -12 -48
-25 -48 -30 0 -4 -4 -8 -10 -8 -18 0 -111 -86 -162 -151 -28 -34 -110 -187
-121 -224 -24 -80 -38 -134 -42 -160 -3 -16 -9 -57 -14 -90 -5 -33 -8 -123 -6
-200 4 -147 8 -193 29 -280 2 -11 9 -42 16 -70 23 -105 63 -209 131 -345 53
-108 60 -120 82 -144 9 -11 17 -24 17 -29 0 -25 270 -322 270 -298 0 3 4 1 8
-4 4 -6 23 -22 42 -35 19 -13 37 -27 40 -31 10 -13 157 -86 215 -106 71 -25
108 -32 195 -40 53 -4 89 -17 200 -72 74 -36 139 -66 144 -66 5 0 11 -5 13
-12 4 -12 -104 -49 -177 -60 -95 -13 -208 -6 -307 21 -72 19 -192 66 -199 77
-3 5 -10 7 -15 4 -5 -4 -9 -2 -9 3 0 5 -12 14 -27 21 -112 50 -289 204 -434
379 -34 41 -159 235 -159 246 0 8 -4 16 -8 18 -10 4 -63 116 -103 216 -5 12
-13 32 -18 45 -12 27 -31 90 -30 97 0 3 -5 19 -11 35 -14 37 -39 146 -46 199
-2 21 -6 42 -9 46 -8 13 -19 178 -18 280 0 169 21 305 69 453 25 76 89 217
103 227 4 3 10 12 14 20 38 85 199 230 312 280 81 37 87 39 150 54 51 12 242
14 338 4z m32 -267 c78 -18 237 -83 263 -108 7 -7 20 -13 28 -13 8 0 17 -7 20
-15 4 -8 9 -13 13 -10 4 2 19 -7 34 -21 14 -13 29 -24 32 -24 3 0 15 -9 27
-20 l21 -19 -44 -19 c-24 -11 -65 -29 -91 -40 l-46 -22 -84 40 c-46 22 -92 41
-103 43 -11 1 -25 6 -31 9 -12 8 -110 21 -154 21 -195 1 -372 -123 -462 -323
-14 -30 -29 -68 -33 -85 -4 -16 -9 -34 -11 -40 -2 -5 -6 -26 -9 -45 -4 -19
-10 -51 -14 -70 -14 -65 2 -375 19 -375 1 0 3 -13 5 -30 3 -39 57 -197 91
-266 39 -81 56 -113 64 -119 3 -3 17 -23 30 -45 13 -22 29 -45 35 -51 5 -6 23
-26 39 -45 16 -19 45 -52 65 -74 20 -22 50 -58 66 -79 37 -48 147 -153 235
-225 24 -19 48 -40 54 -46 6 -6 34 -28 61 -49 l50 -39 -40 7 c-102 18 -249 76
-311 123 -17 13 -34 23 -38 23 -4 0 -13 6 -20 13 -7 6 -31 26 -52 42 -55 42
-231 225 -218 225 3 0 -16 28 -41 62 -39 53 -163 288 -169 321 -8 35 -20 73
-26 82 -7 9 -16 44 -24 90 -2 11 -9 39 -15 63 -7 23 -14 59 -16 80 -3 20 -7
51 -10 67 -5 31 -6 269 -1 316 1 14 6 30 10 37 4 7 5 16 2 20 -4 7 0 28 19
102 2 8 4 16 5 18 3 2 3 2 15 47 4 17 12 36 18 43 5 6 7 12 3 12 -8 0 61 127
92 170 98 133 213 208 382 249 46 11 201 6 265 -8z m-5 -254 c50 -11 140 -42
174 -59 l40 -20 -64 -31 c-36 -17 -67 -31 -70 -32 -3 -1 -33 -15 -68 -33 -35
-17 -87 -33 -117 -37 -66 -7 -108 -24 -159 -64 -21 -17 -43 -31 -49 -31 -6 0
-8 -3 -4 -6 7 -8 -18 -34 -47 -50 -114 -61 -123 -68 -130 -107 -23 -128 -24
-389 -2 -425 3 -6 2 -13 -4 -17 -6 -4 -8 -11 -5 -16 4 -5 8 -28 10 -52 2 -23
11 -60 20 -82 15 -34 42 -117 50 -150 3 -12 12 -37 36 -94 11 -24 17 -46 15
-48 -2 -3 -24 26 -48 64 -86 134 -134 257 -174 448 -10 48 -13 316 -3 344 5
14 10 37 12 51 6 45 39 150 47 150 4 0 11 12 15 27 3 15 10 30 13 33 4 3 20
25 36 49 60 94 190 176 295 187 13 2 25 5 27 7 5 4 130 0 154 -6z m1650 -2414
c0 -6 -5 -24 -10 -38 l-10 -26 -35 37 c-19 20 -35 37 -35 38 0 1 20 1 45 1 28
0 45 -5 45 -12z"/>
</g>
</svg>
